<svg width="308" height="59" viewBox="0 0 308 59" fill="none" xmlns="http://www.w3.org/2000/svg">
<path d="M128.2 39.7L125.4 42.8L122.4 40.1C121.3 40.8 120.2 41.4 118.9 41.8C117.6 42.2 116.3 42.4 114.8 42.4C112.9 42.4 111.1 42.1 109.6 41.4C108 40.7 106.7 39.8 105.5 38.7C104.4 37.5 103.5 36.2 102.8 34.6C102.2 33 101.8 31.4 101.8 29.6C101.8 27.9 102.1 26.2 102.8 24.6C103.4 23 104.3 21.7 105.5 20.5C106.7 19.3 108 18.4 109.6 17.7C111.2 17 112.9 16.7 114.8 16.7C116.7 16.7 118.5 17 120 17.7C121.6 18.4 122.9 19.3 124.1 20.4C125.2 21.6 126.1 22.9 126.8 24.5C127.5 26.1 127.8 27.7 127.8 29.5C127.8 30.9 127.6 32.3 127.1 33.6C126.7 34.9 126 36.1 125.2 37.2L128.2 39.7ZM115 33.7L117.8 30.5L122.1 34.4C122.5 33.7 122.8 33 123.1 32.2C123.3 31.4 123.4 30.6 123.4 29.7C123.4 28.5 123.2 27.4 122.8 26.3C122.4 25.2 121.8 24.3 121.1 23.5C120.4 22.7 119.5 22.1 118.4 21.6C117.4 21.1 116.2 20.9 115 20.9C113.8 20.9 112.6 21.1 111.6 21.6C110.6 22.1 109.7 22.7 109 23.5C108.3 24.3 107.7 25.2 107.3 26.3C106.9 27.4 106.7 28.5 106.7 29.7C106.7 30.9 106.9 32 107.3 33.1C107.7 34.2 108.3 35.1 109 35.9C109.7 36.7 110.6 37.3 111.7 37.8C112.7 38.3 113.9 38.5 115.1 38.5C115.9 38.5 116.7 38.4 117.4 38.2C118.1 38 118.8 37.7 119.3 37.3L115 33.7Z" fill="white"/>
<path d="M143.5 23.4H147.8V42.1H143.5V39.2C142.9 40.1 142.1 40.9 141.2 41.5C140.3 42.2 139.1 42.5 137.7 42.5C135.6 42.5 133.9 41.9 132.8 40.6C131.6 39.3 131.1 37.6 131.1 35.4V23.4H135.4V34C135.4 35.5 135.7 36.6 136.4 37.4C137.1 38.2 138.1 38.6 139.3 38.6C140.5 38.6 141.5 38.2 142.3 37.4C143.1 36.6 143.5 35.5 143.5 34V23.4Z" fill="white"/>
<path d="M156.9 37.8C157.9 38.6 159 39 160.4 39C161.5 39 162.4 38.8 163.2 38.4C164 38 164.7 37.5 165.5 36.7L168 39C167.1 40.1 166 40.9 164.8 41.5C163.6 42.1 162.1 42.5 160.4 42.5C159.1 42.5 157.8 42.3 156.6 41.8C155.4 41.3 154.4 40.7 153.6 39.8C152.7 38.9 152.1 37.9 151.6 36.7C151.1 35.5 150.9 34.2 150.9 32.7C150.9 31.4 151.1 30.1 151.6 28.9C152 27.7 152.7 26.7 153.5 25.8C154.3 24.9 155.3 24.2 156.4 23.7C157.5 23.2 158.7 22.9 160.1 22.9C161.6 22.9 162.9 23.2 164 23.7C165.1 24.2 166.1 25 166.8 25.9C167.5 26.8 168.1 27.9 168.5 29.1C168.9 30.3 169.1 31.6 169.1 33C169.1 33.2 169.1 33.4 169.1 33.6C169.1 33.8 169.1 34 169 34.2H155.3C155.3 35.8 156 36.9 156.9 37.8ZM164.6 31.4C164.5 30.7 164.4 30.1 164.1 29.5C163.9 28.9 163.5 28.4 163.1 27.9C162.7 27.5 162.2 27.1 161.7 26.9C161.1 26.6 160.5 26.5 159.8 26.5C158.5 26.5 157.4 27 156.5 27.9C155.6 28.8 155.1 30 154.9 31.5H164.6V31.4Z" fill="white"/>
<path d="M176.1 42.1H171.8V23.4H176.1V27.6C176.7 26.2 177.5 25.1 178.6 24.2C179.7 23.4 181.1 23 182.7 23V27.5H182.5C181.6 27.5 180.7 27.7 179.9 28C179.1 28.3 178.4 28.8 177.9 29.4C177.3 30 176.9 30.8 176.6 31.7C176.3 32.6 176.1 33.7 176.1 34.9V42.1Z" fill="white"/>
<path d="M202.5 36.5C202 37.7 201.3 38.7 200.4 39.6C199.5 40.5 198.5 41.2 197.2 41.7C196 42.2 194.6 42.5 193.2 42.5C191.8 42.5 190.5 42.2 189.3 41.7C188.1 41.2 187 40.5 186.1 39.6C185.2 38.7 184.5 37.7 184 36.5C183.5 35.3 183.3 34.1 183.3 32.7C183.3 31.4 183.6 30.1 184.1 28.9C184.6 27.7 185.3 26.7 186.2 25.8C187.1 24.9 188.1 24.2 189.4 23.7C190.6 23.2 191.9 22.9 193.4 22.9C194.8 22.9 196.2 23.2 197.4 23.7C198.6 24.2 199.7 24.9 200.6 25.8C201.5 26.7 202.2 27.7 202.7 28.9C203.2 30.1 203.4 31.3 203.4 32.7C203.4 34.1 203 35.3 202.5 36.5ZM198.5 30.4C198.2 29.7 197.8 29 197.3 28.5C196.8 27.9 196.2 27.5 195.5 27.2C194.8 26.9 194 26.7 193.2 26.7C192.4 26.7 191.6 26.9 190.9 27.2C190.2 27.5 189.6 27.9 189.1 28.5C188.6 29 188.2 29.7 188 30.4C187.7 31.1 187.6 31.9 187.6 32.7C187.6 33.5 187.7 34.3 188 35.1C188.3 35.8 188.7 36.5 189.2 37C189.7 37.5 190.3 38 191 38.3C191.7 38.6 192.4 38.8 193.3 38.8C194.2 38.8 194.9 38.6 195.6 38.3C196.3 38 196.9 37.6 197.4 37C197.9 36.5 198.3 35.8 198.5 35.1C198.8 34.4 198.9 33.6 198.9 32.8C199 32 198.8 31.2 198.5 30.4Z" fill="white"/>
<path d="M231.9 39.7L229.1 42.8L226.1 40.1C225 40.8 223.9 41.4 222.6 41.8C221.3 42.2 220 42.4 218.5 42.4C216.6 42.4 214.8 42.1 213.3 41.4C211.7 40.7 210.4 39.8 209.2 38.7C208.1 37.5 207.2 36.2 206.5 34.6C205.9 33 205.5 31.4 205.5 29.6C205.5 27.9 205.8 26.2 206.5 24.6C207.1 23 208 21.7 209.2 20.5C210.4 19.3 211.7 18.4 213.3 17.7C214.9 17 216.6 16.7 218.5 16.7C220.4 16.7 222.2 17 223.7 17.7C225.3 18.4 226.6 19.3 227.8 20.4C228.9 21.6 229.8 22.9 230.5 24.5C231.1 26.1 231.5 27.7 231.5 29.5C231.5 30.9 231.3 32.3 230.8 33.6C230.4 34.9 229.7 36.1 228.9 37.2L231.9 39.7ZM218.6 33.7L221.4 30.5L225.7 34.4C226.1 33.7 226.4 33 226.7 32.2C226.9 31.4 227 30.6 227 29.7C227 28.5 226.8 27.4 226.4 26.3C226 25.2 225.4 24.3 224.7 23.5C224 22.7 223.1 22.1 222 21.6C221 21.1 219.8 20.9 218.6 20.9C217.4 20.9 216.2 21.1 215.2 21.6C214.2 22.1 213.3 22.7 212.6 23.5C211.9 24.3 211.3 25.2 210.9 26.3C210.5 27.4 210.3 28.5 210.3 29.7C210.3 30.9 210.5 32 210.9 33.1C211.3 34.2 211.9 35.1 212.6 35.9C213.3 36.7 214.2 37.3 215.3 37.8C216.3 38.3 217.5 38.5 218.7 38.5C219.5 38.5 220.3 38.4 221 38.2C221.7 38 222.4 37.7 222.9 37.3L218.6 33.7Z" fill="white"/>
<path d="M247.2 23.4H251.5V42.1H247.2V39.2C246.6 40.1 245.8 40.9 244.9 41.5C244 42.2 242.8 42.5 241.4 42.5C239.3 42.5 237.6 41.9 236.5 40.6C235.3 39.3 234.8 37.6 234.8 35.4V23.4H239.1V34C239.1 35.5 239.4 36.6 240.1 37.4C240.8 38.2 241.8 38.6 243 38.6C244.2 38.6 245.2 38.2 246 37.4C246.8 36.6 247.2 35.5 247.2 34V23.4Z" fill="white"/>
<path d="M255.7 42.1V23.4H260V42.1H255.7Z" fill="white"/>
<path d="M269.4 36.2C269.4 37 269.6 37.6 270 38C270.4 38.4 271 38.6 271.7 38.6C272.6 38.6 273.5 38.4 274.4 38V41.5C273.9 41.8 273.3 42 272.7 42.2C272.1 42.4 271.4 42.4 270.6 42.4C269.8 42.4 269.1 42.3 268.4 42.1C267.7 41.9 267.2 41.6 266.7 41.2C266.2 40.8 265.8 40.2 265.6 39.5C265.3 38.8 265.2 37.9 265.2 36.9V27H262.8V23.4H265.2V18.3H269.5V23.4H274.5V27H269.5V36.2H269.4Z" fill="white"/>
<path d="M288.7 42.1V39.8C288.1 40.6 287.2 41.2 286.3 41.7C285.3 42.2 284.1 42.5 282.7 42.5C281.8 42.5 281 42.4 280.2 42.1C279.4 41.9 278.7 41.5 278.1 41C277.5 40.5 277 39.9 276.6 39.2C276.2 38.5 276.1 37.6 276.1 36.7V36.6C276.1 35.6 276.3 34.7 276.7 33.9C277.1 33.1 277.6 32.5 278.3 32C279 31.5 279.8 31.1 280.7 30.9C281.6 30.7 282.6 30.5 283.7 30.5C284.8 30.5 285.8 30.6 286.6 30.7C287.4 30.8 288.2 31 288.9 31.3V30.8C288.9 29.5 288.5 28.5 287.7 27.8C286.9 27.1 285.8 26.8 284.3 26.8C283.2 26.8 282.3 26.9 281.5 27.1C280.7 27.3 279.8 27.6 279 28L277.8 24.6C278.8 24.1 279.9 23.7 281 23.5C282.1 23.2 283.4 23.1 284.9 23.1C287.7 23.1 289.8 23.8 291.1 25.2C292.4 26.6 293.1 28.5 293.1 31V42.1H288.7ZM288.8 34.1C288.3 33.9 287.6 33.7 286.9 33.6C286.2 33.5 285.4 33.4 284.5 33.4C283.2 33.4 282.1 33.7 281.3 34.2C280.5 34.7 280.2 35.5 280.2 36.4V36.5C280.2 37.4 280.5 38.1 281.2 38.6C281.9 39.1 282.8 39.3 283.8 39.3C284.5 39.3 285.2 39.2 285.8 39C286.4 38.8 286.9 38.5 287.4 38.2C287.8 37.9 288.2 37.4 288.4 37C288.6 36.5 288.8 36 288.8 35.4V34.1Z" fill="white"/>
<path d="M301 42.1H296.7V23.4H301V27.6C301.6 26.2 302.4 25.1 303.5 24.2C304.6 23.4 306 23 307.6 23V27.5H307.4C306.5 27.5 305.6 27.7 304.8 28C304 28.3 303.3 28.8 302.8 29.4C302.2 30 301.8 30.8 301.5 31.7C301.2 32.6 301 33.7 301 34.9V42.1Z" fill="white"/>
<path d="M257.9 21.2C259.225 21.2 260.3 20.1255 260.3 18.8C260.3 17.4745 259.225 16.4 257.9 16.4C256.575 16.4 255.5 17.4745 255.5 18.8C255.5 20.1255 256.575 21.2 257.9 21.2Z" fill="white"/>
<path fill-rule="evenodd" clip-rule="evenodd" d="M36 47.4C33.4 49 30.4 50 27 50C16.4 50 9.40002 40.7 9.40002 29.6C9.40002 18.5 16.4 9.2 27 9.2C37.6 9.2 44.6 18.5 44.6 29.6C44.6 32.7 44.1 35.7 43.1 38.3L50.3 44.5C52.4 40.2 53.5 35.1 53.5 29.6C53.6 12.4 42.5 0 27 0C11.5 0 0.400024 12.4 0.400024 29.5C0.400024 46.6 11.5 59 27 59C33.2 59 38.6 57.1 43 53.7L46.7 56.4C46.7 56.4 50.4 59.9 53.9 56.4C57.3 52.8 79.9 26.1 79.9 26.1C81.5 24.3 81.3 21.4 79.6 19.8C77.8 18.2 75.2 18.3 73.6 20.2L50.6 47.6L34.8 34.1C32.8 32.3 29.9 32.6 28.2 34.6C26.5 36.6 26.8 39.7 28.7 41.5L36 47.4Z" fill="white"/>
</svg>
